<svg aria-hidden="true" style="position: absolute; width: 0; height: 0; overflow: hidden;" version="1.1" xmlns="http://www.w3.org/2000/svg" xmlns:xlink="http://www.w3.org/1999/xlink">
<defs>
<symbol id="icon-icon-check" viewBox="0 0 34 32">
<path fill="#2196f3" style="fill: var(--color1, #2196f3)" d="M4.267 0h25.6c2.356 0 4.267 1.91 4.267 4.267v23.467c0 2.356-1.91 4.267-4.267 4.267h-25.6c-2.356 0-4.267-1.91-4.267-4.267v-23.467c0-2.356 1.91-4.267 4.267-4.267z"></path>
<path fill="#fff" style="fill: var(--color2, #fff,); stroke: var(--color2, #fff)" stroke="#fff" stroke-linejoin="miter" stroke-linecap="butt" stroke-miterlimit="4" stroke-width="0.4267" d="M8.442 16.537l-0.147-0.14-2.205 2.088 7.767 7.41 16.318-15.567-2.19-2.089-14.128 13.465-5.416-5.167z"></path>
</symbol>
<symbol id="icon-close-black" viewBox="0 0 20 20">
<path fill="#2196f3" style="fill: var(--color1, #212121)" d="M16.667 5.675l-1.231-1.231-4.88 4.88-4.88-4.88-1.231 1.231 4.88 4.88-4.88 4.88 1.231 1.231 4.88-4.88 4.88 4.88 1.231-1.231-4.88-4.88 4.88-4.88z"></path>
</symbol>
<symbol id="icon-envelope" viewBox="0 0 27 20">
<path d="M24.167 0h-21.667c-1.378 0-2.5 1.122-2.5 2.5v15c0 1.378 1.122 2.5 2.5 2.5h21.667c1.378 0 2.5-1.122 2.5-2.5v-15c0-1.378-1.122-2.5-2.5-2.5zM24.167 1.667c0.113 0 0.222 0.023 0.32 0.065l-11.153 9.667-11.153-9.667c0.094-0.041 0.204-0.065 0.32-0.065h21.667zM24.167 18.333h-21.667c-0.46 0-0.833-0.373-0.833-0.833v0-14.008l11.12 9.638c0.145 0.127 0.337 0.204 0.547 0.204s0.401-0.077 0.548-0.205l-0.001 0.001 11.12-9.638v14.008c0 0.46-0.373 0.833-0.833 0.833v0z"></path>
</symbol>
<symbol id="icon-facebook" viewBox="0 0 20 20">
<path d="M13.33 3.32h1.827v-3.18c-0.77-0.089-1.663-0.14-2.567-0.14-0.033 0-0.065 0-0.098 0l0.005-0c-2.633 0-4.437 1.656-4.437 4.7v2.8h-2.904v3.555h2.904v8.945h3.562v-8.944h2.787l0.442-3.555h-3.23v-2.451c0-1.027 0.277-1.73 1.709-1.73z"></path>
</symbol>
<symbol id="icon-instagram" viewBox="0 0 20 20">
<path d="M19.98 5.88c-0.046-1.063-0.218-1.793-0.465-2.426-0.265-0.695-0.658-1.287-1.154-1.773l-0.001-0.001c-0.487-0.495-1.078-0.887-1.736-1.142l-0.034-0.011c-0.638-0.246-1.364-0.417-2.427-0.464-1.070-0.051-1.41-0.063-4.126-0.063s-3.055 0.012-4.122 0.059c-1.063 0.046-1.793 0.218-2.425 0.464-0.695 0.265-1.287 0.659-1.774 1.156l-0.001 0.001c-0.495 0.487-0.886 1.078-1.141 1.736l-0.011 0.034c-0.247 0.637-0.418 1.363-0.465 2.426-0.051 1.070-0.063 1.41-0.063 4.126s0.012 3.055 0.059 4.122c0.047 1.063 0.219 1.793 0.465 2.426 0.267 0.694 0.66 1.286 1.155 1.773l0.001 0.001c0.5 0.508 1.106 0.902 1.77 1.152 0.637 0.247 1.364 0.419 2.426 0.465 1.067 0.047 1.407 0.059 4.122 0.059s3.056-0.012 4.122-0.059c1.063-0.046 1.793-0.218 2.426-0.464 1.348-0.531 2.396-1.579 2.915-2.892l0.012-0.035c0.246-0.637 0.418-1.364 0.465-2.426 0.047-1.067 0.058-1.407 0.058-4.122s-0.004-3.055-0.050-4.122zM18.18 14.046c-0.044 0.977-0.208 1.504-0.345 1.856-0.345 0.874-1.024 1.553-1.876 1.89l-0.022 0.008c-0.352 0.137-0.883 0.301-1.856 0.344-1.055 0.047-1.371 0.059-4.040 0.059s-2.989-0.012-4.040-0.059c-0.977-0.043-1.504-0.207-1.856-0.344-0.45-0.168-0.834-0.422-1.147-0.745l-0.001-0.001c-0.323-0.315-0.577-0.698-0.74-1.127l-0.007-0.021c-0.136-0.352-0.3-0.883-0.343-1.856-0.047-1.055-0.059-1.372-0.059-4.040s0.012-2.99 0.059-4.040c0.043-0.977 0.207-1.504 0.343-1.856 0.168-0.451 0.424-0.836 0.749-1.148l0.001-0.001c0.315-0.323 0.699-0.577 1.129-0.739l0.021-0.007c0.35-0.137 0.882-0.3 1.855-0.344 1.055-0.046 1.371-0.058 4.040-0.058 2.672 0 2.989 0.012 4.040 0.058 0.976 0.043 1.504 0.207 1.856 0.344 0.433 0.16 0.828 0.414 1.148 0.746 0.332 0.325 0.586 0.715 0.747 1.15 0.136 0.35 0.3 0.882 0.343 1.855 0.047 1.055 0.059 1.371 0.059 4.040s-0.012 2.98-0.059 4.036z"></path>
<path d="M10.037 4.864c-2.837 0.001-5.136 2.301-5.137 5.138v0c0 0 0 0.001 0 0.001 0 2.838 2.301 5.139 5.139 5.139s5.139-2.301 5.139-5.139c0-2.838-2.301-5.139-5.139-5.139-0 0-0.001 0-0.001 0h0zM10.037 13.334c-1.841-0-3.333-1.492-3.333-3.333s1.492-3.333 3.333-3.333c0 0 0 0 0.001 0h-0c1.841 0 3.333 1.492 3.333 3.333s-1.492 3.333-3.333 3.333v0zM16.578 4.661c0 0.663-0.537 1.2-1.2 1.2s-1.2-0.537-1.2-1.2v0c0-0.663 0.537-1.2 1.2-1.2s1.2 0.537 1.2 1.2v0z"></path>
</symbol>
<symbol id="icon-jkjlkllkl" viewBox="0 0 20 20">
<path d="M16.667 3.333h-13.333c-0.917 0-1.658 0.75-1.658 1.667l-0.008 10c0 0.917 0.75 1.667 1.667 1.667h13.333c0.917 0 1.667-0.75 1.667-1.667v-10c0-0.917-0.75-1.667-1.667-1.667zM16.333 6.875l-5.892 3.683c-0.267 0.167-0.617 0.167-0.883 0l-5.892-3.683c-0.208-0.133-0.333-0.358-0.333-0.6 0-0.558 0.608-0.892 1.083-0.6l5.583 3.492 5.583-3.492c0.475-0.292 1.083 0.042 1.083 0.6 0 0.242-0.125 0.467-0.333 0.6z"></path>
</symbol>
<symbol id="icon-linkedin" viewBox="0 0 20 20">
<path d="M19.995 20h0.005v-7.336c0-3.588-0.773-6.352-4.967-6.352-2.017 0-3.37 1.106-3.923 2.156h-0.058v-1.821h-3.978v13.352h4.142v-6.611c0-1.741 0.33-3.425 2.486-3.425 2.124 0 2.155 1.987 2.155 3.536v6.501h4.138zM0.33 6.647h4.147v13.353h-4.147v-13.353zM2.402 0c-1.327 0-2.402 1.075-2.402 2.402v0c0 1.325 1.076 2.424 2.402 2.424s2.401-1.098 2.401-2.424c-0.001-1.326-1.075-2.401-2.401-2.402h-0z"></path>
</symbol>
<symbol id="icon-logo-1" viewBox="0 0 18 20">
<path d="M2.4 0l2.923 2.767h8.154v7.719l2.923 2.767v-13.254h-14z"></path>
<path d="M0 2.65v12.875h13.6v-5.118l-8.191-7.754-5.409-0.003zM11.009 13.642h-8.857v-8.66h0.626v8.073h8.231v0.586zM3.916 17.914l0.327-0.674h0.274l-0.477 0.898v0.524h-0.248v-0.524l-0.477-0.898h0.274l0.327 0.674zM5.32 18.33h-0.55l-0.115 0.331h-0.257l0.537-1.422h0.222l0.538 1.422h-0.258l-0.116-0.331zM4.839 18.131h0.412l-0.206-0.59-0.206 0.59zM6.294 18.278c0-0.066 0.018-0.126 0.054-0.18 0.036-0.056 0.106-0.121 0.212-0.196-0.043-0.052-0.082-0.11-0.114-0.172l-0.002-0.005c-0.020-0.042-0.032-0.090-0.032-0.141v-0c0-0.112 0.034-0.199 0.102-0.264s0.159-0.098 0.273-0.098c0.104 0 0.188 0.031 0.254 0.092s0.1 0.136 0.1 0.226c0 0.001 0 0.001 0 0.002 0 0.060-0.017 0.116-0.046 0.164l0.001-0.001c-0.040 0.059-0.089 0.108-0.146 0.147l-0.002 0.001-0.097 0.070 0.275 0.324c0.040-0.078 0.059-0.165 0.059-0.26h0.206c0 0.175-0.041 0.318-0.123 0.43l0.209 0.247h-0.275l-0.080-0.095c-0.096 0.072-0.217 0.115-0.349 0.115-0.005 0-0.010-0-0.016-0l0.001 0c-0.14 0-0.253-0.037-0.338-0.112-0.078-0.069-0.126-0.168-0.126-0.28 0-0.004 0-0.009 0-0.013l-0 0.001zM6.765 18.492c0.080 0 0.155-0.027 0.224-0.080l-0.31-0.366-0.030 0.022c-0.078 0.059-0.117 0.127-0.117 0.203 0 0.066 0.021 0.119 0.064 0.16 0.042 0.038 0.097 0.062 0.159 0.062 0.004 0 0.008-0 0.012-0l-0.001 0zM6.634 17.576c0 0.055 0.034 0.123 0.101 0.206l0.108-0.074 0.031-0.024c0.037-0.032 0.060-0.080 0.060-0.133 0-0.002-0-0.004-0-0.005v0c0-0 0-0.001 0-0.001 0-0.037-0.016-0.070-0.042-0.093l-0-0c-0.026-0.025-0.062-0.040-0.101-0.040-0.002 0-0.004 0-0.005 0h0c-0.002-0-0.004-0-0.006-0-0.041 0-0.079 0.018-0.104 0.047l-0 0c-0.026 0.030-0.041 0.069-0.041 0.112 0 0.002 0 0.004 0 0.006v-0zM9.217 18.199c-0.014 0.152-0.070 0.27-0.168 0.355s-0.228 0.127-0.39 0.127c-0.113 0-0.213-0.027-0.3-0.080-0.087-0.056-0.155-0.134-0.198-0.226l-0.001-0.003c-0.046-0.1-0.073-0.217-0.073-0.34 0-0.002 0-0.003 0-0.005v0-0.133c0-0.134 0.024-0.252 0.071-0.354s0.116-0.181 0.204-0.236c0.090-0.056 0.192-0.083 0.309-0.083 0.157 0 0.283 0.043 0.379 0.128s0.152 0.206 0.167 0.361h-0.246c-0.012-0.102-0.042-0.176-0.090-0.22s-0.118-0.068-0.21-0.068c-0.107 0-0.19 0.039-0.248 0.118s-0.086 0.193-0.088 0.345v0.126c0 0.154 0.028 0.271 0.082 0.352s0.136 0.121 0.242 0.121c0.097 0 0.17-0.022 0.219-0.066s0.080-0.116 0.093-0.218h0.246zM10.574 17.988c0 0.14-0.024 0.262-0.072 0.367s-0.118 0.186-0.207 0.242c-0.089 0.056-0.192 0.084-0.309 0.084-0.115 0-0.218-0.028-0.308-0.084-0.091-0.059-0.163-0.141-0.208-0.238l-0.001-0.003c-0.047-0.102-0.074-0.221-0.074-0.347 0-0.005 0-0.009 0-0.014v0.001-0.080c0-0.139 0.024-0.261 0.073-0.367s0.119-0.187 0.208-0.243c0.090-0.057 0.193-0.085 0.308-0.085s0.219 0.028 0.308 0.084c0.090 0.056 0.159 0.136 0.208 0.24s0.074 0.226 0.074 0.365v0.079zM10.326 17.914c0-0.158-0.030-0.278-0.090-0.362-0.053-0.077-0.141-0.126-0.24-0.126-0.005 0-0.009 0-0.014 0l0.001-0c-0.003-0-0.007-0-0.010-0-0.099 0-0.187 0.050-0.24 0.125l-0.001 0.001c-0.060 0.083-0.090 0.202-0.092 0.354v0.082c0 0.156 0.030 0.277 0.091 0.362s0.146 0.128 0.254 0.128c0.11 0 0.194-0.042 0.252-0.125s0.089-0.205 0.089-0.365v-0.074z"></path>
</symbol>
<symbol id="icon-logo-2" viewBox="0 0 15 20">
<path d="M6.53 1.129h0.053c0.097 0 0.202 0.010 0.306 0.018 0.459 0.032 0.914 0.101 1.362 0.205v-1.101c-0.407-0.107-0.887-0.187-1.379-0.223l-0.026-0.002c-0.159-0.012-0.357-0.022-0.556-0.027l-0.013-0h-0.164c-0.952 0.004-1.9 0.126-2.822 0.364-1.050 0.262-2.058 0.672-2.994 1.218v10.922c0.82-0.456 1.77-0.837 2.769-1.094l0.084-0.018c0.702-0.187 1.521-0.319 2.362-0.366l0.033-0.001h0.032c0.135-0.007 0.27-0.011 0.41-0.012v-1.119c-1.112 0.015-2.183 0.165-3.205 0.434l0.092-0.021c-0.377 0.098-0.74 0.204-1.082 0.321l-0.389 0.132v-8.516l0.166-0.080c1.181-0.574 2.56-0.945 4.016-1.031l0.029-0.001c0.005-0 0.011-0.001 0.017-0.001s0.012 0 0.018 0.001l-0.001-0c0.155-0.008 0.311-0.012 0.463-0.012h0.175c0.081 0.002 0.162 0.004 0.242 0.009z"></path>
<path d="M9.273 2.282c-0.003 0-0.006 0-0.010 0-0.572 0-1.132-0.048-1.677-0.141l0.059 0.008c-0.173-0.029-0.343-0.065-0.509-0.103v10.797c0.7 0.173 1.419 0.258 2.14 0.252 1.004-0.004 1.976-0.136 2.902-0.381l-0.080 0.018c1.135-0.288 2.133-0.706 3.048-1.247l-0.053 0.029v-10.727c-0.82 0.455-1.769 0.836-2.768 1.094l-0.085 0.019c-0.969 0.249-1.966 0.377-2.967 0.381zM13.59 2.468l0.389-0.131v8.518l-0.167 0.080c-0.564 0.277-1.226 0.521-1.916 0.699l-0.074 0.016c-0.832 0.215-1.687 0.326-2.546 0.33-0.257 0-0.512-0.011-0.759-0.032l-0.267-0.023v-8.761l0.31 0.021c0.226 0.015 0.459 0.022 0.713 0.022 1.151-0.004 2.264-0.155 3.325-0.435l-0.092 0.021c0.363-0.096 0.724-0.203 1.082-0.324zM1.053 16.235c-0.105-0.108-0.251-0.175-0.413-0.175-0.007 0-0.014 0-0.021 0l0.001-0c-0.003-0-0.006-0-0.009-0-0.087 0-0.17 0.017-0.246 0.049l0.004-0.002c-0.148 0.059-0.262 0.175-0.319 0.32l-0.001 0.004c-0.031 0.077-0.046 0.159-0.045 0.242v1.459c-0.004 0.103 0.016 0.205 0.057 0.299 0.035 0.075 0.084 0.142 0.146 0.196 0.058 0.049 0.127 0.085 0.2 0.104 0.071 0.020 0.145 0.030 0.218 0.030 0.081 0.001 0.162-0.017 0.235-0.051 0.219-0.097 0.369-0.313 0.369-0.563v-0.163h-0.382v0.13c0 0.003 0 0.006 0 0.009 0 0.044-0.008 0.085-0.023 0.124l0.001-0.002c-0.013 0.032-0.032 0.060-0.055 0.082l-0 0c-0.044 0.034-0.099 0.055-0.159 0.056h-0c-0.007 0.001-0.014 0.001-0.022 0.001-0.064 0-0.121-0.031-0.156-0.079l-0-0.001c-0.032-0.051-0.051-0.114-0.051-0.181 0-0.005 0-0.010 0-0.015l-0 0.001v-1.361c-0.002-0.075 0.014-0.15 0.047-0.218 0.035-0.054 0.095-0.089 0.164-0.089 0.008 0 0.016 0 0.024 0.001l-0.001-0c0.002-0 0.005-0 0.007-0 0.067 0 0.126 0.032 0.163 0.082l0 0.001c0.039 0.051 0.063 0.117 0.063 0.188 0 0.003-0 0.006-0 0.009v-0 0.126h0.378v-0.149c0-0.002 0-0.004 0-0.007 0-0.089-0.017-0.175-0.048-0.253l0.002 0.005c-0.030-0.080-0.073-0.148-0.128-0.206l0 0zM3.319 16.219c-0.116-0.099-0.268-0.16-0.434-0.161h-0c-0.078 0-0.155 0.014-0.228 0.041-0.157 0.056-0.282 0.172-0.348 0.32l-0.002 0.004c-0.038 0.089-0.058 0.185-0.056 0.283v1.399c-0.003 0.098 0.017 0.196 0.055 0.287 0.035 0.075 0.085 0.142 0.148 0.196 0.058 0.054 0.127 0.096 0.202 0.123 0.073 0.027 0.15 0.041 0.228 0.041 0.167-0 0.319-0.063 0.435-0.165l-0.001 0.001c0.061-0.055 0.11-0.121 0.144-0.196 0.039-0.090 0.058-0.188 0.055-0.287v-1.4c0-0.004 0-0.008 0-0.013 0-0.097-0.020-0.19-0.057-0.274l0.002 0.004c-0.036-0.080-0.084-0.148-0.144-0.204l-0-0zM3.141 18.105c0.001 0.007 0.001 0.014 0.001 0.022 0 0.071-0.029 0.135-0.077 0.181l-0 0c-0.048 0.041-0.111 0.065-0.18 0.065s-0.131-0.025-0.18-0.066l0 0c-0.047-0.046-0.077-0.11-0.077-0.181 0-0.008 0-0.016 0.001-0.023l-0 0.001v-1.4c-0.001-0.006-0.001-0.014-0.001-0.021 0-0.071 0.029-0.135 0.077-0.181l0-0c0.048-0.041 0.111-0.065 0.18-0.065s0.131 0.025 0.18 0.066l-0-0c0.047 0.046 0.077 0.11 0.077 0.18 0 0.008-0 0.015-0.001 0.023l0-0.001v1.4zM6.295 18.731v-2.65h-0.367l-0.482 1.403h-0.007l-0.486-1.402h-0.363v2.649h0.378v-1.612h0.007l0.37 1.139h0.189l0.374-1.139h0.007v1.612h0.378zM8.445 16.267c-0.058-0.065-0.132-0.115-0.214-0.145-0.078-0.026-0.167-0.041-0.26-0.041-0.005 0-0.010 0-0.015 0l0.001-0h-0.562v2.65h0.377v-1.035h0.195c0.118 0.005 0.235-0.020 0.341-0.072 0.087-0.049 0.157-0.117 0.206-0.2l0.001-0.003c0.043-0.070 0.073-0.149 0.087-0.231 0.013-0.083 0.021-0.18 0.021-0.277 0-0.008-0-0.017-0-0.025l0 0.001c0.004-0.127-0.009-0.255-0.037-0.378-0.027-0.095-0.075-0.177-0.139-0.244l0 0zM8.251 17.075c-0.002 0.051-0.014 0.098-0.036 0.14l0.001-0.002c-0.022 0.041-0.055 0.073-0.096 0.092l-0.001 0.001c-0.047 0.021-0.101 0.034-0.159 0.034-0.007 0-0.014-0-0.021-0.001l0.001 0h-0.172v-0.901h0.195c0.005-0 0.012-0 0.018-0 0.055 0 0.108 0.012 0.155 0.034l-0.002-0.001c0.039 0.023 0.069 0.056 0.088 0.096l0.001 0.001c0.021 0.047 0.032 0.097 0.033 0.148v0.176c0 0.062 0.004 0.125 0 0.182h-0.004zM10.234 16.081h-0.31l-0.584 2.65h0.378l0.111-0.569h0.515l0.111 0.569h0.377l-0.598-2.65zM9.885 17.8l0.186-0.96h0.007l0.185 0.96h-0.377zM12.673 17.677h-0.007l-0.57-1.596h-0.363v2.65h0.378v-1.593h0.008l0.577 1.593h0.355v-2.649h-0.377v1.596zM14.98 16.081l-0.304 1.054h-0.008l-0.304-1.054h-0.399l0.519 1.53v1.12h0.377v-1.12l0.518-1.53h-0.4zM0 19.479h0.182v0.51h0.123v-0.511h0.181v-0.105h-0.486v0.105zM1.53 19.374l-0.238 0.615h0.131l0.051-0.14h0.245l0.053 0.14h0.135l-0.245-0.615h-0.131zM1.51 19.746l0.083-0.228 0.083 0.228h-0.167zM3.042 19.762h0.142v0.079c-0.040 0.032-0.091 0.052-0.146 0.052h-0c-0.003 0-0.006 0-0.009 0-0.049 0-0.093-0.023-0.122-0.059l-0-0c-0.029-0.041-0.046-0.092-0.046-0.146 0-0.005 0-0.010 0-0.015l-0 0.001c0-0.137 0.059-0.205 0.177-0.205 0.004-0 0.009-0.001 0.013-0.001 0.061 0 0.112 0.042 0.126 0.098l0 0.001 0.122-0.024c-0.026-0.12-0.113-0.181-0.261-0.181-0.002-0-0.005-0-0.008-0-0.080 0-0.152 0.030-0.207 0.080l0-0c-0.055 0.054-0.089 0.13-0.089 0.214 0 0.008 0 0.016 0.001 0.024l-0-0.001c-0 0.004-0 0.009-0 0.014 0 0.083 0.030 0.158 0.080 0.217l-0-0c0.054 0.056 0.13 0.091 0.215 0.091 0.007 0 0.013-0 0.020-0.001l-0.001 0c0.003 0 0.006 0 0.010 0 0.097 0 0.185-0.037 0.251-0.098l-0 0v-0.242h-0.267v0.104zM4.586 19.374h-0.125v0.615h0.431v-0.105h-0.306v-0.511zM5.892 19.374h-0.125v0.615h0.125v-0.615zM7.168 19.785l-0.252-0.411h-0.12v0.615h0.115v-0.402l0.247 0.402h0.124v-0.615h-0.114v0.411zM8.322 19.718h0.307v-0.105h-0.307v-0.135h0.33v-0.105h-0.454v0.615h0.467v-0.105h-0.342v-0.167zM11.12 19.617h-0.242v-0.242h-0.123v0.615h0.123v-0.269h0.242v0.269h0.124v-0.615h-0.124v0.243zM12.281 19.718h0.308v-0.105h-0.308v-0.135h0.331v-0.105h-0.454v0.615h0.466v-0.105h-0.342v-0.167zM13.855 19.718c0.107-0.017 0.162-0.073 0.162-0.171 0.001-0.005 0.001-0.011 0.001-0.017 0-0.049-0.024-0.093-0.061-0.119l-0-0c-0.045-0.023-0.099-0.037-0.156-0.037-0.008 0-0.017 0-0.025 0.001l0.001-0h-0.261v0.615h0.124v-0.257h0.024c0.003-0 0.006-0 0.010-0 0.024 0 0.047 0.005 0.068 0.015l-0.001-0c0.018 0.011 0.033 0.027 0.044 0.045l0.134 0.195h0.148l-0.075-0.12c-0.034-0.060-0.080-0.11-0.135-0.147l-0.002-0.001zM13.73 19.633h-0.091v-0.154h0.097c0.008-0.001 0.017-0.001 0.026-0.001 0.036 0 0.070 0.006 0.102 0.016l-0.002-0.001c0.017 0.015 0.027 0.036 0.027 0.060 0 0.026-0.013 0.050-0.032 0.065l-0 0c-0.031 0.010-0.066 0.015-0.103 0.015-0.008 0-0.016-0-0.024-0.001l0.001 0zM15.042 19.718h0.306v-0.105h-0.307v-0.135h0.331v-0.105h-0.455v0.615h0.467v-0.105h-0.342v-0.167z"></path>
</symbol>
<symbol id="icon-logo-3" viewBox="0 0 19 20">
<path d="M2.951 19.44c0.015 0 0.028 0.006 0.037 0.016v0l0.096 0.1c-0.074 0.081-0.166 0.146-0.269 0.19-0.121 0.048-0.251 0.072-0.381 0.068-0.006 0-0.013 0-0.019 0-0.122 0-0.239-0.023-0.346-0.066l0.006 0.002c-0.207-0.084-0.367-0.248-0.443-0.453l-0.002-0.005c-0.038-0.102-0.061-0.22-0.061-0.344 0-0.005 0-0.009 0-0.014v0.001c-0-0.004-0-0.009-0-0.014 0-0.124 0.024-0.242 0.067-0.35l-0.002 0.006c0.042-0.103 0.105-0.198 0.186-0.278s0.179-0.14 0.287-0.181c0.118-0.044 0.243-0.065 0.369-0.064 0.118-0.003 0.234 0.017 0.344 0.058 0.094 0.039 0.181 0.093 0.257 0.16l-0.080 0.107c-0.006 0.008-0.012 0.014-0.020 0.019l-0 0c-0.008 0.005-0.018 0.009-0.028 0.009-0.001 0-0.003-0-0.004-0l0 0c-0.013-0.001-0.025-0.005-0.035-0.012l0 0-0.043-0.028-0.060-0.037c-0.055-0.029-0.118-0.051-0.185-0.063l-0.004-0.001c-0.039-0.007-0.084-0.011-0.131-0.011-0.004 0-0.008 0-0.012 0h0.001c-0.003-0-0.006-0-0.010-0-0.092 0-0.18 0.017-0.261 0.049l0.005-0.002c-0.081 0.032-0.151 0.077-0.208 0.135l0-0c-0.060 0.062-0.106 0.135-0.135 0.214-0.034 0.091-0.051 0.187-0.049 0.283-0.001 0.098 0.015 0.195 0.049 0.287 0.029 0.079 0.074 0.151 0.133 0.213 0.055 0.058 0.123 0.103 0.199 0.133 0.078 0.031 0.162 0.047 0.247 0.046 0.049 0 0.098-0.002 0.146-0.009 0.079-0.009 0.154-0.035 0.221-0.076 0.033-0.021 0.065-0.045 0.094-0.071 0.012-0.011 0.028-0.018 0.045-0.019h0zM5.715 18.935c0.001 0.121-0.020 0.242-0.065 0.355-0.042 0.108-0.103 0.2-0.18 0.275l-0 0c-0.078 0.077-0.173 0.138-0.277 0.179l-0.006 0.002c-0.108 0.040-0.233 0.064-0.364 0.064s-0.256-0.023-0.371-0.066l0.007 0.002c-0.109-0.043-0.203-0.105-0.281-0.182l0 0c-0.077-0.077-0.139-0.169-0.18-0.272l-0.002-0.005c-0.041-0.105-0.065-0.228-0.065-0.355s0.024-0.25 0.067-0.362l-0.002 0.007c0.040-0.104 0.102-0.199 0.181-0.279 0.079-0.074 0.172-0.133 0.276-0.173l0.006-0.002c0.108-0.041 0.233-0.065 0.364-0.065s0.256 0.024 0.371 0.067l-0.007-0.002c0.106 0.041 0.202 0.102 0.282 0.181s0.14 0.172 0.18 0.274c0.044 0.114 0.067 0.235 0.065 0.357zM5.464 18.935c0-0.004 0-0.010 0-0.015 0-0.097-0.017-0.189-0.048-0.275l0.002 0.006c-0.054-0.16-0.174-0.286-0.326-0.346l-0.004-0.001c-0.079-0.030-0.17-0.047-0.264-0.047s-0.186 0.017-0.27 0.048l0.005-0.002c-0.157 0.062-0.277 0.187-0.33 0.343l-0.001 0.004c-0.060 0.186-0.060 0.385 0 0.57 0.054 0.16 0.174 0.285 0.327 0.345l0.004 0.001c0.171 0.060 0.358 0.060 0.529 0 0.077-0.030 0.146-0.075 0.202-0.133 0.057-0.062 0.101-0.135 0.128-0.213 0.033-0.092 0.047-0.188 0.046-0.285zM7.6 19.234l0.026 0.064c0.009-0.023 0.018-0.043 0.027-0.064 0.011-0.025 0.021-0.046 0.033-0.066l-0.002 0.003 0.611-1.059c0.012-0.019 0.023-0.030 0.035-0.033s0.027-0.006 0.041-0.006c0.003 0 0.006 0 0.009 0l-0-0h0.18v1.722h-0.214v-1.32c-0.001-0.009-0.001-0.019-0.001-0.030s0-0.021 0.001-0.031l-0 0.001-0.615 1.074c-0.008 0.016-0.021 0.030-0.036 0.039l-0 0c-0.015 0.009-0.032 0.014-0.051 0.014-0.001 0-0.001 0-0.002-0h-0.034c-0.019 0-0.037-0.005-0.053-0.014s-0.028-0.023-0.036-0.039l-0-0.001-0.633-1.081v1.383h-0.207v-1.719h0.18c0.003-0 0.006-0 0.009-0 0.015 0 0.029 0.002 0.043 0.006l-0.001-0c0.015 0.007 0.026 0.018 0.033 0.033l0 0 0.625 1.060c0.011 0.018 0.022 0.038 0.030 0.059l0.001 0.003zM9.901 19.149v0.645h-0.239v-1.719h0.533c0.006-0 0.013-0 0.020-0 0.099 0 0.194 0.014 0.285 0.039l-0.007-0.002c0.078 0.021 0.149 0.058 0.211 0.107 0.053 0.047 0.094 0.105 0.12 0.169 0.028 0.070 0.042 0.145 0.041 0.22 0.001 0.075-0.014 0.15-0.045 0.22-0.030 0.068-0.074 0.126-0.128 0.172l-0.001 0.001c-0.060 0.050-0.13 0.089-0.208 0.113l-0.004 0.001c-0.093 0.028-0.191 0.042-0.288 0.040l-0.289-0.005zM9.901 18.964h0.29c0.063 0.001 0.126-0.008 0.185-0.026 0.052-0.017 0.096-0.042 0.134-0.075l-0.001 0c0.035-0.031 0.063-0.068 0.081-0.111l0.001-0.002c0.018-0.041 0.029-0.090 0.029-0.141 0-0.002-0-0.003-0-0.005v0c0-0.005 0-0.011 0-0.017 0-0.044-0.009-0.086-0.025-0.124l0.001 0.002c-0.020-0.046-0.048-0.086-0.083-0.117l-0-0c-0.079-0.059-0.178-0.094-0.285-0.094-0.013 0-0.025 0-0.038 0.001l0.002-0h-0.29v0.709zM13.117 19.796h-0.189c-0.001 0-0.002 0-0.004 0-0.018 0-0.036-0.006-0.049-0.016l0 0c-0.013-0.011-0.024-0.024-0.031-0.039l-0-0.001-0.163-0.416h-0.817l-0.169 0.416c-0.007 0.016-0.017 0.029-0.030 0.038l-0 0c-0.014 0.011-0.032 0.017-0.051 0.017-0.001 0-0.002-0-0.003-0h-0.189l0.718-1.722h0.249l0.727 1.722zM11.933 19.156h0.674l-0.285-0.701c-0.019-0.044-0.037-0.098-0.052-0.153l-0.002-0.008-0.027 0.090c-0.009 0.031-0.018 0.055-0.028 0.079l0.002-0.006-0.282 0.7zM14.15 18.081c0.014 0.008 0.027 0.019 0.036 0.031l1.047 1.298v-1.336h0.214v1.722h-0.12c-0.001 0-0.002 0-0.003 0-0.017 0-0.032-0.004-0.046-0.011l0.001 0c-0.015-0.008-0.028-0.019-0.038-0.032l-0-0-1.046-1.297c0.001 0.020 0.001 0.040 0 0.059v1.28h-0.214v-1.723h0.127c0.015 0 0.029 0.002 0.043 0.008zM17.211 19.111v0.684h-0.24v-0.684l-0.661-1.037h0.214c0.001-0 0.003-0 0.005-0 0.018 0 0.034 0.006 0.047 0.015l-0-0c0.013 0.011 0.024 0.024 0.032 0.038l0 0.001 0.414 0.669c0.016 0.028 0.031 0.055 0.043 0.080s0.021 0.049 0.030 0.073l0.031-0.074c0.013-0.031 0.027-0.057 0.042-0.081l-0.001 0.003 0.408-0.673c0.009-0.014 0.019-0.026 0.031-0.037l0-0c0.013-0.010 0.029-0.017 0.047-0.017 0.001 0 0.003 0 0.004 0h0.217l-0.663 1.042zM7.482 15.183c0.104 0.013 0.209 0.023 0.316 0.032 1.614-0.688 2.98-1.814 3.926-3.237s1.431-3.081 1.394-4.766l-1.779-1.695c0.118 0.559 0.185 1.201 0.185 1.859 0 1.259-0.248 2.461-0.697 3.559l0.023-0.063c-0.681 1.707-1.848 3.2-3.369 4.312z"></path>
<path d="M6.847 15.105l0.048 0.009c1.625-1.108 2.865-2.654 3.557-4.44 0.392-0.978 0.619-2.111 0.619-3.297 0-0.81-0.106-1.595-0.305-2.343l0.014 0.063-2.534-2.413c0.793 1.498 1.259 3.274 1.259 5.16 0 0.438-0.025 0.871-0.074 1.296l0.005-0.052c-0.248 2.199-1.146 4.286-2.59 6.018zM15.44 9.203c-0.43 1.851-1.476 3.52-2.981 4.76-0.415 0.346-0.879 0.666-1.369 0.944l-0.047 0.024c1.274-0.361 2.378-0.972 3.303-1.782l-0.010 0.008c0.916-0.801 1.641-1.797 2.113-2.924l0.019-0.052-1.028-0.978z"></path>
<path d="M15.037 8.93l-1.463-1.394c-0.033 1.676-0.541 3.226-1.394 4.531l0.020-0.033c-0.871 1.356-2.108 2.465-3.581 3.211h0.007c0.328 0 0.656-0.019 0.982-0.056 1.407-0.552 2.593-1.398 3.531-2.469l0.009-0.010c0.909-1.038 1.57-2.315 1.878-3.724l0.010-0.056zM7.059 1.665l-1.746-1.665c-1.56 0.574-2.902 1.584-3.85 2.898s-1.458 2.868-1.463 4.462c0.006 1.761 0.628 3.47 1.768 4.856s2.733 2.371 4.526 2.798c1.601-1.858 2.538-4.154 2.676-6.555s-0.532-4.78-1.912-6.793zM19.070 8.674c-0.007-2.089-0.88-4.092-2.431-5.569s-3.652-2.31-5.845-2.316c-1.013-0.001-2.019 0.177-2.963 0.526l10.687 10.181c0.35-0.834 0.553-1.804 0.553-2.821 0-0 0-0.001 0-0.001v0z"></path>
</symbol>
<symbol id="icon-logo-4" viewBox="0 0 37 20">
<path d="M5.768 5.967h-0.001c-1.052 0-1.905 0.832-1.905 1.857v0.001c0 1.025 0.853 1.857 1.905 1.857h0.001c1.052 0 1.905-0.832 1.905-1.857v-0.001c0-1.025-0.853-1.856-1.905-1.856zM19.831 5.374c-0.003-1.425-0.585-2.789-1.619-3.797-1.032-1.007-2.433-1.574-3.894-1.578-1.462 0.003-2.863 0.57-3.897 1.577s-1.616 2.373-1.619 3.798v7.853s11.028-1.197 11.029-7.853v-0.001zM0 15.806c0.005 1.037 0.436 1.972 1.126 2.641l0.001 0.001c0.7 0.679 1.656 1.098 2.71 1.099h0c1.054-0.001 2.010-0.419 2.711-1.099l-0.001 0.001c0.691-0.67 1.122-1.604 1.127-2.64v-5.466s-7.673 0.834-7.673 5.464zM3.837 16.785c-0.001 0-0.001 0-0.002 0-0.207 0-0.4-0.061-0.561-0.167l0.004 0.002c-0.163-0.107-0.291-0.257-0.368-0.433l-0.002-0.006c-0.048-0.111-0.076-0.239-0.076-0.375 0-0.068 0.007-0.134 0.020-0.197l-0.001 0.006c0.039-0.19 0.135-0.365 0.275-0.501 0.137-0.133 0.313-0.228 0.508-0.267l0.006-0.001c0.195-0.038 0.397-0.019 0.58 0.056s0.34 0.2 0.451 0.36c0.106 0.152 0.169 0.341 0.169 0.545 0 0.135-0.028 0.264-0.078 0.381l0.002-0.006c-0.050 0.12-0.124 0.228-0.217 0.319s-0.205 0.164-0.327 0.213c-0.114 0.047-0.246 0.075-0.385 0.075-0 0-0 0-0 0h0v-0.004zM11.67 16.177h-0.785v0.811h-0.409v-1.983h1.292v0.331h-0.883v0.512h0.785v0.33zM13.634 16.041c0 0.195-0.035 0.367-0.104 0.514s-0.168 0.26-0.297 0.34c-0.121 0.075-0.269 0.12-0.426 0.12-0.005 0-0.011-0-0.016-0l0.001 0c-0.164 0-0.311-0.040-0.44-0.119-0.13-0.082-0.233-0.196-0.298-0.333l-0.002-0.005c-0.068-0.144-0.108-0.312-0.108-0.49 0-0.006 0-0.012 0-0.018l-0 0.001v-0.099c0-0.195 0.035-0.367 0.105-0.515s0.17-0.263 0.298-0.342c0.129-0.080 0.276-0.12 0.442-0.12s0.312 0.040 0.44 0.12c0.129 0.079 0.228 0.193 0.298 0.342s0.107 0.32 0.107 0.514v0.088zM13.22 15.951c0-0.208-0.038-0.366-0.112-0.474-0.066-0.098-0.177-0.162-0.303-0.162-0.006 0-0.011 0-0.017 0l0.001-0c-0.004-0-0.010-0-0.015-0-0.125 0-0.236 0.063-0.301 0.16l-0.001 0.001c-0.074 0.106-0.113 0.262-0.113 0.468v0.097c0 0.203 0.037 0.36 0.112 0.472s0.182 0.167 0.322 0.167c0.005 0 0.010 0 0.016 0 0.125 0 0.235-0.063 0.299-0.16l0.001-0.001c0.073-0.108 0.111-0.265 0.112-0.472v-0.097zM14.96 16.467c0-0.003 0-0.007 0-0.011 0-0.067-0.032-0.127-0.082-0.165l-0.001-0c-0.054-0.042-0.153-0.086-0.294-0.131-0.131-0.041-0.242-0.087-0.349-0.142l0.012 0.006c-0.225-0.122-0.338-0.286-0.338-0.492 0-0.107 0.030-0.203 0.090-0.287s0.147-0.15 0.26-0.198c0.113-0.047 0.24-0.071 0.381-0.071s0.268 0.026 0.379 0.078c0.111 0.051 0.197 0.123 0.258 0.217s0.093 0.2 0.093 0.319h-0.409c0-0.091-0.028-0.161-0.086-0.211-0.057-0.051-0.138-0.077-0.241-0.077-0.1 0-0.178 0.021-0.233 0.064-0.051 0.036-0.084 0.095-0.084 0.162 0 0.002 0 0.003 0 0.005v-0c0 0.064 0.033 0.118 0.097 0.162 0.066 0.044 0.161 0.085 0.288 0.123 0.233 0.070 0.402 0.157 0.508 0.26s0.16 0.233 0.16 0.387c0 0.172-0.065 0.307-0.195 0.405s-0.305 0.146-0.525 0.146c-0.153 0-0.292-0.028-0.417-0.083-0.118-0.050-0.215-0.129-0.286-0.228l-0.001-0.002c-0.062-0.092-0.098-0.205-0.098-0.326 0-0.004 0-0.008 0-0.012v0.001h0.41c0 0.219 0.131 0.328 0.393 0.328 0.098 0 0.173-0.020 0.228-0.059 0.050-0.036 0.082-0.093 0.082-0.158 0-0.003-0-0.006-0-0.009l0 0zM17.141 15.335h-0.607v1.653h-0.409v-1.653h-0.6v-0.331h1.616v0.331zM18.57 16.128h-0.785v0.531h0.921v0.328h-1.33v-1.983h1.327v0.331h-0.919v0.473h0.785v0.32zM19.68 16.262h-0.326v0.726h-0.409v-1.983h0.738c0.234 0 0.415 0.052 0.542 0.157s0.191 0.252 0.191 0.443c0 0.135-0.030 0.248-0.088 0.34-0.066 0.095-0.156 0.169-0.262 0.213l-0.004 0.001 0.429 0.811v0.019h-0.439l-0.372-0.726zM19.355 15.931h0.33c0.102 0 0.182-0.026 0.238-0.078 0.052-0.051 0.085-0.123 0.085-0.202 0-0.005-0-0.010-0-0.016l0 0.001c0-0.093-0.027-0.167-0.080-0.22s-0.134-0.080-0.244-0.080h-0.329v0.595zM21.832 16.289v0.699h-0.409v-1.983h0.774c0.149 0 0.28 0.027 0.393 0.082s0.2 0.132 0.261 0.233c0.061 0.1 0.091 0.214 0.091 0.342 0 0.194-0.067 0.348-0.2 0.46s-0.316 0.167-0.552 0.167h-0.358zM21.832 15.958h0.365c0.108 0 0.19-0.026 0.247-0.077s0.086-0.123 0.086-0.218c0-0.004 0-0.009 0-0.014 0-0.086-0.033-0.163-0.087-0.222l0 0c-0.057-0.060-0.136-0.091-0.237-0.093h-0.374v0.623zM24.418 16.128h-0.785v0.531h0.921v0.328h-1.33v-1.983h1.327v0.331h-0.918v0.473h0.785v0.32zM26.315 15.335h-0.607v1.653h-0.409v-1.653h-0.599v-0.331h1.616v0.331zM27.743 16.128h-0.785v0.531h0.921v0.328h-1.33v-1.983h1.327v0.331h-0.919v0.473h0.785v0.32zM28.853 16.262h-0.326v0.726h-0.409v-1.983h0.737c0.234 0 0.415 0.052 0.542 0.157s0.191 0.252 0.191 0.443c0 0.135-0.029 0.248-0.088 0.34-0.066 0.095-0.156 0.169-0.262 0.213l-0.004 0.001 0.429 0.811v0.019h-0.439l-0.372-0.726zM28.528 15.931h0.33c0.102 0 0.181-0.026 0.238-0.078 0.052-0.051 0.085-0.123 0.085-0.202 0-0.005-0-0.011-0-0.016l0 0.001c0-0.093-0.027-0.167-0.080-0.22s-0.134-0.080-0.244-0.080h-0.328v0.595zM30.93 16.467c0-0.003 0-0.007 0-0.011 0-0.067-0.032-0.127-0.082-0.165l-0.001-0c-0.054-0.042-0.153-0.086-0.294-0.131-0.131-0.041-0.242-0.087-0.349-0.142l0.012 0.006c-0.225-0.122-0.338-0.286-0.338-0.492 0-0.107 0.030-0.203 0.090-0.287s0.147-0.15 0.26-0.198c0.113-0.047 0.24-0.071 0.381-0.071s0.268 0.026 0.379 0.078c0.111 0.051 0.197 0.123 0.258 0.217s0.093 0.2 0.093 0.319h-0.409c0-0.091-0.028-0.161-0.086-0.211-0.058-0.051-0.138-0.077-0.241-0.077-0.1 0-0.178 0.021-0.233 0.064-0.051 0.036-0.083 0.095-0.083 0.161 0 0.002 0 0.004 0 0.005v-0c0 0.064 0.033 0.118 0.097 0.162 0.066 0.044 0.161 0.085 0.287 0.123 0.233 0.070 0.402 0.157 0.508 0.26s0.16 0.233 0.16 0.387c0 0.172-0.065 0.307-0.195 0.405s-0.305 0.146-0.525 0.146c-0.153 0-0.292-0.028-0.417-0.083-0.118-0.050-0.215-0.129-0.286-0.228l-0.001-0.002c-0.062-0.092-0.098-0.205-0.098-0.326 0-0.004 0-0.008 0-0.012v0.001h0.41c0 0.219 0.131 0.328 0.393 0.328 0.098 0 0.173-0.020 0.228-0.059 0.050-0.036 0.082-0.093 0.082-0.158 0-0.003-0-0.006-0-0.009l0 0z"></path>
</symbol>
<symbol id="icon-logo-5" viewBox="0 0 25 20">
<path d="M1.91 16.714c0.098 0.121 0.15 0.274 0.147 0.43 0.001 0.010 0.001 0.022 0.001 0.033 0 0.203-0.088 0.384-0.228 0.509l-0.001 0.001c-0.19 0.144-0.426 0.214-0.663 0.198h-1.166v-2.726h1.142c0.019-0.001 0.042-0.002 0.065-0.002 0.213 0 0.411 0.069 0.571 0.185l-0.003-0.002c0.136 0.115 0.222 0.286 0.222 0.477 0 0.012-0 0.023-0.001 0.034l0-0.002c0.007 0.15-0.040 0.298-0.132 0.417-0.089 0.108-0.211 0.183-0.348 0.213 0.154 0.029 0.294 0.111 0.394 0.233zM0.543 16.303h0.487c0.111 0.009 0.221-0.024 0.311-0.091 0.065-0.059 0.106-0.145 0.106-0.239 0-0.009-0-0.019-0.001-0.028l0 0.001c0.001-0.007 0.001-0.015 0.001-0.023 0-0.096-0.040-0.182-0.104-0.243l-0-0c-0.078-0.058-0.175-0.093-0.281-0.093-0.013 0-0.027 0.001-0.040 0.002l0.002-0h-0.48v0.715zM1.389 17.348c0.071-0.062 0.116-0.154 0.116-0.255 0-0.008-0-0.015-0.001-0.022l0 0.001c0-0.006 0.001-0.013 0.001-0.020 0-0.104-0.046-0.197-0.118-0.26l-0-0c-0.083-0.062-0.187-0.099-0.3-0.099-0.011 0-0.022 0-0.034 0.001l0.002-0h-0.511v0.749h0.518c0.117 0.007 0.232-0.026 0.328-0.094zM4.244 17.886l-0.635-1.065h-0.239v1.065h-0.546v-2.726h1.034c0.021-0.002 0.046-0.002 0.071-0.002 0.248 0 0.475 0.089 0.651 0.236l-0.002-0.001c0.153 0.157 0.248 0.372 0.248 0.609 0 0.195-0.064 0.376-0.173 0.521l0.002-0.002c-0.128 0.147-0.302 0.245-0.493 0.277l0.677 1.089h-0.594zM3.37 16.449h0.447c0.311 0 0.466-0.137 0.466-0.413 0-0.007 0.001-0.015 0.001-0.023 0-0.11-0.044-0.21-0.115-0.283l0 0c-0.083-0.070-0.192-0.112-0.31-0.112-0.015 0-0.029 0.001-0.044 0.002l0.002-0h-0.452l0.006 0.83zM7.23 17.337h-1.089l-0.192 0.549h-0.573l1-2.695h0.619l0.996 2.695h-0.573l-0.188-0.549zM7.084 16.924l-0.398-1.15-0.398 1.15h0.796zM10.969 17.886h-0.543l-1.216-1.853v1.853h-0.541v-2.726h0.541l1.216 1.864v-1.864h0.543v2.726zM14.064 17.233c-0.114 0.206-0.281 0.371-0.484 0.478l-0.006 0.003c-0.236 0.12-0.498 0.179-0.763 0.171h-0.966v-2.726h0.966c0.012-0 0.027-0.001 0.042-0.001 0.262 0 0.51 0.062 0.73 0.173l-0.009-0.004c0.208 0.105 0.379 0.271 0.491 0.475 0.107 0.208 0.17 0.454 0.17 0.715s-0.063 0.507-0.174 0.724l0.004-0.009zM13.443 17.168c0.149-0.174 0.24-0.401 0.24-0.65s-0.091-0.477-0.241-0.652l0.001 0.001c-0.165-0.145-0.382-0.234-0.62-0.234-0.021 0-0.041 0.001-0.061 0.002l0.003-0h-0.377v1.764h0.377c0.018 0.001 0.038 0.002 0.059 0.002 0.238 0 0.455-0.088 0.621-0.234l-0.001 0.001zM7.569 0s7.001 2.654 6.853 6.494v6.495s-6.996-2.655-6.849-6.495l-0.003-6.494zM20.658 11.468c1.253-0.876 2.768-1.466 4.406-1.642l0.042-0.004v-2.033c-1.872 0.738-3.398 2.017-4.426 3.642l-0.022 0.038z"></path>
<path d="M19.864 12.080c1.093-2.179 2.933-3.849 5.177-4.696l0.066-0.022v-5.858s-9.97 3.78-9.759 9.248v9.247s0.444-0.169 1.143-0.486c0-0.296 0-0.594 0.031-0.894 0.219-2.629 1.464-4.93 3.329-6.529l0.013-0.011z"></path>
<path d="M18.916 15.516c0.052-0.641 0.169-1.276 0.349-1.894-1.274 1.5-2.064 3.446-2.111 5.576l-0 0.010c0.812-0.39 1.44-0.728 2.054-1.088l-0.136 0.074c-0.119-0.568-0.187-1.22-0.187-1.888 0-0.278 0.012-0.553 0.035-0.825l-0.002 0.035zM19.312 15.549c-0.020 0.225-0.031 0.486-0.031 0.75 0 0.592 0.056 1.171 0.163 1.732l-0.009-0.057c2.724-1.637 5.785-4.165 5.667-7.22v-0.266c-2.029 0.234-3.817 1.118-5.186 2.434l0.003-0.003c-0.313 0.772-0.529 1.665-0.605 2.598l-0.002 0.033z"></path>
</symbol>
<symbol id="icon-logo-6" viewBox="0 0 39 20">
<path d="M19.452 9.284c-0.157-0.225-0.251-0.504-0.251-0.805 0-0.032 0.001-0.063 0.003-0.094l-0 0.004v-1.297c0-0.398 0.083-0.7 0.247-0.907s0.447-0.31 0.847-0.309c0.376 0 0.643 0.088 0.801 0.264 0.172 0.224 0.256 0.499 0.237 0.776v0.304h-0.673v-0.309c0-0.012 0-0.026 0-0.040 0-0.092-0.007-0.183-0.021-0.272l0.001 0.010c-0.011-0.072-0.046-0.134-0.096-0.179l-0-0c-0.059-0.044-0.134-0.071-0.215-0.071-0.010 0-0.020 0-0.030 0.001l0.001-0c-0.008-0.001-0.018-0.001-0.028-0.001-0.086 0-0.165 0.028-0.229 0.076l0.001-0.001c-0.056 0.051-0.096 0.119-0.111 0.196l-0 0.002c-0.020 0.106-0.028 0.213-0.027 0.32v1.574c-0.001 0.018-0.002 0.039-0.002 0.060 0 0.139 0.033 0.27 0.090 0.387l-0.002-0.005c0.034 0.047 0.080 0.084 0.133 0.107l0.002 0.001c0.039 0.017 0.085 0.027 0.133 0.027 0.014 0 0.028-0.001 0.042-0.003l-0.002 0c0.008 0.001 0.018 0.001 0.028 0.001 0.080 0 0.153-0.027 0.211-0.073l-0.001 0.001c0.053-0.049 0.089-0.115 0.1-0.19l0-0.002c0.016-0.104 0.023-0.21 0.021-0.315v-0.32h0.673v0.291c0.002 0.024 0.003 0.052 0.003 0.080 0 0.276-0.088 0.531-0.238 0.74l0.003-0.004c-0.154 0.193-0.418 0.289-0.805 0.289s-0.68-0.103-0.846-0.317zM22.255 9.297c-0.17-0.202-0.255-0.496-0.255-0.885v-1.364c0-0.385 0.085-0.677 0.255-0.874s0.454-0.297 0.853-0.296c0.396 0 0.678 0.099 0.849 0.296s0.257 0.489 0.257 0.874v1.364c0 0.385-0.087 0.68-0.259 0.884s-0.454 0.304-0.846 0.304c-0.391 0-0.681-0.103-0.853-0.303zM23.421 8.97c0.061-0.126 0.089-0.265 0.081-0.403v-1.67c0.001-0.013 0.001-0.029 0.001-0.045 0-0.128-0.030-0.248-0.083-0.355l0.002 0.005c-0.035-0.048-0.081-0.085-0.135-0.108l-0.002-0.001c-0.039-0.017-0.084-0.027-0.132-0.027-0.016 0-0.032 0.001-0.047 0.003l0.002-0c-0.014-0.002-0.030-0.003-0.046-0.003-0.048 0-0.093 0.010-0.135 0.027l0.002-0.001c-0.056 0.024-0.103 0.061-0.137 0.108l-0.001 0.001c-0.061 0.123-0.089 0.259-0.081 0.396v1.678c-0.009 0.139 0.019 0.277 0.081 0.403 0.039 0.042 0.086 0.076 0.139 0.099l0.003 0.001c0.051 0.022 0.111 0.036 0.173 0.036s0.122-0.013 0.176-0.037l-0.003 0.001c0.056-0.024 0.103-0.058 0.142-0.1l0-0v-0.008zM25.022 5.917h0.725l0.545 2.517 0.557-2.517h0.705l0.071 3.633h-0.52l-0.056-2.525-0.538 2.525h-0.418l-0.557-2.534-0.052 2.534h-0.527l0.065-3.633zM28.437 5.917h1.129c0.65 0 0.975 0.344 0.975 1.032 0 0.659-0.342 0.987-1.027 0.987h-0.384v1.614h-0.697l0.004-3.633zM29.402 7.47c0.069 0.009 0.139 0.003 0.204-0.017s0.127-0.053 0.179-0.097c0.080-0.123 0.115-0.267 0.1-0.41 0-0.013 0.001-0.027 0.001-0.042 0-0.102-0.012-0.201-0.036-0.296l0.002 0.008c-0.011-0.038-0.028-0.072-0.052-0.101l0 0.001c-0.024-0.030-0.053-0.054-0.087-0.072l-0.002-0.001c-0.080-0.037-0.174-0.059-0.273-0.059-0.013 0-0.026 0-0.039 0.001l0.002-0h-0.27v1.085h0.27zM31.546 5.917h0.748l0.768 3.633h-0.65l-0.152-0.838h-0.667l-0.156 0.838h-0.659l0.768-3.633zM32.186 8.292l-0.261-1.525-0.26 1.525h0.522zM33.683 5.917h0.487l0.934 2.073v-2.073h0.578v3.633h-0.464l-0.939-2.163v2.163h-0.598l0.001-3.633zM37.036 8.165l-0.776-2.243h0.653l0.474 1.44 0.444-1.44h0.64l-0.766 2.243v1.385h-0.669v-1.385zM20.528 11.139v0.19h-0.569v1.476h-0.238v-1.476h-0.571v-0.19h1.378zM22.31 12.805h-0.184c-0.002 0-0.003 0-0.005 0-0.018 0-0.034-0.006-0.047-0.016l0 0c-0.014-0.009-0.024-0.023-0.030-0.038l-0-0.001-0.164-0.396h-0.789l-0.165 0.396c-0.005 0.017-0.014 0.032-0.025 0.045l0-0c-0.013 0.010-0.030 0.016-0.048 0.016-0.001 0-0.003-0-0.004-0h-0.184l0.697-1.666h0.242l0.705 1.66zM21.157 12.186h0.658l-0.279-0.678c-0.018-0.042-0.035-0.094-0.050-0.148l-0.002-0.009-0.026 0.088-0.025 0.070-0.276 0.677zM23.512 12.641c0.043 0.002 0.087 0.002 0.13 0 0.038-0.004 0.075-0.010 0.112-0.020 0.040-0.009 0.073-0.020 0.105-0.032l-0.005 0.002c0.031-0.012 0.062-0.026 0.094-0.040v-0.375h-0.279c-0.001 0-0.002 0-0.003 0-0.013 0-0.025-0.005-0.035-0.013l0 0c-0.009-0.007-0.014-0.017-0.014-0.029 0-0.001 0-0.001 0-0.002v0-0.128h0.541v0.639c-0.084 0.057-0.182 0.104-0.287 0.134l-0.007 0.002c-0.049 0.014-0.108 0.027-0.168 0.034l-0.006 0.001c-0.060 0.007-0.13 0.010-0.201 0.010-0.001 0-0.002 0-0.003 0h0c-0.002 0-0.005 0-0.008 0-0.123 0-0.241-0.023-0.35-0.064l0.007 0.002c-0.108-0.042-0.2-0.1-0.279-0.174l0 0c-0.075-0.073-0.136-0.161-0.178-0.259l-0.002-0.005c-0.041-0.099-0.064-0.214-0.064-0.335 0-0.004 0-0.008 0-0.012v0.001c-0-0.003-0-0.007-0-0.011 0-0.122 0.023-0.238 0.065-0.344l-0.002 0.006c0.040-0.099 0.101-0.188 0.18-0.263s0.174-0.134 0.279-0.173c0.119-0.043 0.246-0.063 0.373-0.062 0.065 0 0.13 0.004 0.193 0.014 0.057 0.009 0.112 0.023 0.166 0.042 0.049 0.017 0.096 0.039 0.139 0.066s0.083 0.055 0.122 0.087l-0.067 0.103c-0.005 0.009-0.013 0.017-0.022 0.022l-0 0c-0.009 0.005-0.020 0.009-0.032 0.009h-0c-0.016-0-0.031-0.005-0.044-0.013l0 0c-0.027-0.014-0.050-0.027-0.071-0.041l0.003 0.002c-0.026-0.016-0.057-0.031-0.089-0.044l-0.004-0.001c-0.036-0.014-0.079-0.027-0.123-0.036l-0.005-0.001c-0.050-0.009-0.108-0.014-0.167-0.014-0.003 0-0.007 0-0.010 0h0.001c-0.002-0-0.005-0-0.008-0-0.093 0-0.183 0.017-0.266 0.048l0.005-0.002c-0.078 0.030-0.148 0.074-0.205 0.132-0.058 0.060-0.102 0.13-0.13 0.207-0.030 0.083-0.047 0.178-0.047 0.278s0.017 0.195 0.048 0.284l-0.002-0.006c0.030 0.078 0.078 0.15 0.139 0.21 0.057 0.057 0.127 0.102 0.203 0.132 0.089 0.029 0.183 0.040 0.276 0.033zM25.733 12.615h0.761v0.19h-0.993v-1.666h0.238l-0.006 1.476zM27.285 12.804h-0.238v-1.665h0.238v1.666zM28.171 11.147c0.014 0.008 0.026 0.018 0.036 0.030l0 0 1.019 1.256c-0.001-0.009-0.001-0.019-0.001-0.030s0-0.021 0.001-0.031l-0 0.001v-1.241h0.207v1.673h-0.12c-0.002 0-0.005 0-0.008 0-0.016 0-0.031-0.003-0.044-0.010l0.001 0c-0.015-0.009-0.027-0.019-0.037-0.032l-0-0-1.017-1.254v1.295h-0.199v-1.666h0.124c0.013 0 0.027 0.003 0.039 0.008zM31.188 11.139v0.183h-0.844v0.55h0.684v0.177h-0.684v0.569h0.844v0.183h-1.090v-1.662h1.090zM6.219 0.85l10.58 2.844v9.966l-10.58-2.842v-9.968zM5.54 0v11.301l11.936 3.21v-11.3l-11.936-3.21z"></path>
<path d="M11.937 19.757l-11.937-3.212v-11.3l11.937 3.211v11.301z"></path>
<path d="M5.738 0.722l10.442 2.808-4.441 4.205-10.443-2.81 4.442-4.204zM5.54 0l-5.54 5.245 11.937 3.211 5.539-5.245-11.936-3.211zM12.609 19.121l4.867-4.609-4.867-1.31v5.919z"></path>
</symbol>
<symbol id="icon-person-black" viewBox="0 0 20 20">
<path d="M10 10c1.842 0 3.333-1.492 3.333-3.333s-1.492-3.333-3.333-3.333c-1.842 0-3.333 1.492-3.333 3.333s1.492 3.333 3.333 3.333zM10 11.667c-2.225 0-6.667 1.117-6.667 3.333v0.833c0 0.458 0.375 0.833 0.833 0.833h11.667c0.458 0 0.833-0.375 0.833-0.833v-0.833c0-2.217-4.442-3.333-6.667-3.333z"></path>
</symbol>
<symbol id="icon-phone" viewBox="0 0 20 20">
<path d="M17.137 13.032l-2.626-0.3c-0.631-0.072-1.251 0.145-1.696 0.589l-1.902 1.902c-2.926-1.489-5.324-3.877-6.813-6.813l1.913-1.913c0.445-0.445 0.662-1.065 0.589-1.695l-0.3-2.605c-0.124-1.044-1.003-1.83-2.057-1.83h-1.789c-1.168 0-2.14 0.972-2.068 2.14 0.548 8.829 7.609 15.88 16.428 16.428 1.168 0.072 2.14-0.899 2.14-2.068v-1.789c0.010-1.044-0.775-1.923-1.82-2.047v0z"></path>
</symbol>
<symbol id="icon-phone-black" viewBox="0 0 20 20">
<path d="M15.551 12.358l-2.042-0.233c-0.491-0.056-0.973 0.113-1.319 0.458l-1.479 1.48c-2.276-1.158-4.141-3.015-5.299-5.299l1.488-1.488c0.346-0.346 0.515-0.828 0.458-1.319l-0.233-2.026c-0.097-0.812-0.78-1.423-1.6-1.423h-1.391c-0.909 0-1.664 0.756-1.608 1.664 0.426 6.867 5.918 12.351 12.777 12.777 0.909 0.056 1.664-0.7 1.664-1.608v-1.391c0.008-0.812-0.603-1.496-1.415-1.592v0z"></path>
</symbol>
<symbol id="icon-Rectangle-11" viewBox="0 0 21 20">
<path d="M2.667 0h16c1.473 0 2.667 1.194 2.667 2.667v14.667c0 1.473-1.194 2.667-2.667 2.667h-16c-1.473 0-2.667-1.194-2.667-2.667v-14.667c0-1.473 1.194-2.667 2.667-2.667z"></path>
</symbol>
<symbol id="icon-smartphone" viewBox="0 0 13 20">
<path d="M10.625 0h-8.75c-1.034 0-1.875 0.841-1.875 1.875v16.25c0 1.034 0.841 1.875 1.875 1.875h8.75c1.034 0 1.875-0.841 1.875-1.875v-16.25c0-1.034-0.841-1.875-1.875-1.875zM1.875 1.25h8.75c0.345 0 0.625 0.28 0.625 0.625v0 13.125h-10v-13.125c0-0.345 0.28-0.625 0.625-0.625v0zM10.625 18.75h-8.75c-0.345 0-0.625-0.28-0.625-0.625v0-1.875h10v1.875c0 0.345-0.28 0.625-0.625 0.625v0z"></path>
<path d="M2.942 17.174c0.113 0.102 0.183 0.249 0.183 0.412s-0.070 0.31-0.183 0.412l-0 0c-0.116 0.106-0.272 0.172-0.442 0.172s-0.326-0.065-0.443-0.172l0 0c-0.113-0.102-0.183-0.249-0.183-0.413s0.070-0.31 0.183-0.412l0-0c0.116-0.106 0.272-0.172 0.442-0.172s0.326 0.065 0.443 0.172l-0-0z"></path>
</symbol>
<symbol id="icon-twitter" viewBox="0 0 20 20">
<path d="M20 3.799c-0.688 0.308-1.485 0.536-2.32 0.643l-0.043 0.004c0.85-0.51 1.489-1.299 1.796-2.237l0.008-0.029c-0.748 0.452-1.62 0.796-2.547 0.983l-0.053 0.009c-0.75-0.799-1.813-1.297-2.992-1.297-2.264 0-4.099 1.835-4.099 4.099 0 0.001 0 0.002 0 0.002v-0c0 0.325 0.027 0.638 0.095 0.935-3.409-0.166-6.425-1.8-8.451-4.288-0.353 0.593-0.562 1.307-0.564 2.070v0.001c0 1.42 0.732 2.679 1.821 3.407-0.682-0.019-1.317-0.203-1.871-0.515l0.020 0.011v0.045c0.002 1.978 1.398 3.63 3.258 4.025l0.027 0.005c-0.312 0.085-0.67 0.134-1.039 0.134-0.013 0-0.025-0-0.038-0l0.002 0c-0.262 0-0.527-0.015-0.776-0.070 0.531 1.624 2.038 2.818 3.831 2.856-1.384 1.091-3.154 1.75-5.077 1.75-0.003 0-0.005 0-0.008 0h0c-0.336 0-0.658-0.016-0.981-0.057 1.767 1.154 3.93 1.84 6.253 1.84 0.013 0 0.026-0 0.039-0h-0.002c7.545 0 11.67-6.25 11.67-11.668 0-0.18-0.006-0.356-0.015-0.53 0.812-0.585 1.494-1.29 2.036-2.098l0.019-0.029z"></path>
</symbol>
<symbol id="icon-close" viewBox="0 0 20 20">
<path d="M10 8.586l-7.071-7.071-1.414 1.414 7.071 7.071-7.071 7.071 1.414 1.414 7.071-7.071 7.071 7.071 1.414-1.414-7.071-7.071 7.071-7.071-1.414-1.414-7.071 7.071z"></path>
</symbol>
<symbol id="icon-icon-send" viewBox="0 0 32 32">
<path fill="#fff" style="fill: var(--color1, #fff)" d="M32 0l-32 18 10.227 3.788 15.773-14.788-11.998 16.186 0.010 0.004-0.012-0.004v8.814l5.735-6.691 7.265 2.691 5-28z"></path>
</symbol>
<symbol id="icon-close-black-18dp-2-1" viewBox="0 0 32 32">
<path d="M26.667 7.303l-1.97-1.97-7.808 7.808-7.808-7.808-1.97 1.97 7.808 7.808-7.808 7.808 1.97 1.97 7.808-7.808 7.808 7.808 1.97-1.97-7.808-7.808 7.808-7.808z"></path>
</symbol>
<symbol id="icon-icon-check-1" viewBox="0 0 42 32">
<path fill="#fff" style="fill: var(--color1, #fff); stroke: var(--color1, #fff)" stroke="#fff" stroke-linejoin="miter" stroke-linecap="butt" stroke-miterlimit="4" stroke-width="0.64" d="M6.263 15.205l-0.22-0.21-3.307 3.132 11.651 11.114 24.477-23.351-3.285-3.134-21.192 20.197-8.124-7.75z"></path>
</symbol>
</defs>
</svg>
